<?xml version="1.0" encoding="UTF-8"?>
<svg xmlns="http://www.w3.org/2000/svg" viewBox="0 0 750 500">
  <defs>
    <style>
      .cls-1 {
        fill: #373d52;
      }

      .cls-2 {
        fill: #edf0f7;
      }

      .cls-3 {
        fill: #fff;
      }

      .cls-4 {
        fill: #292f44;
      }
    </style>
  </defs>
  <g id="BACKGROUND">
    <rect class="cls-2" width="750" height="500"/>
  </g>
  <g id="OBJECTS">
    <g>
      <path class="cls-1" d="M627.82,268.05h-1.71s-5.34-.08-5.34-.08l-14.71-17.81-4.55.37-13.83-8.71-7.39.33-18.93-17.7,3.16-7.59-9.64-11.21-9.29-1.39-.67-3.24-4.63-1.45-7.87-15.92-5.54-14.87-1.71-9.13-9.98-4.93-1.9-2.12-5.4-6.04-18.23,20.12-12.56,6.4-13.05,17.99,7.61,14.13,24.68,19.01,2.08,4.69,6.55,3.65,5.74,11.85,10.28,5.48,13.09,14.28-19.8-10.32.94,3.16,2.88,6.83-6.62-5.22-6.62-1.61,10,18.85-16.39-15.65-7.74-12.26-5.13-3.96-.25,4.15-23.82-26.09-7.71-1.9-8.61-6.59-8.23-14.09-8.95-9.54-5.08.44-11.55-8.53,5.78,11.13-10.76-7.45,1.93,6.36-15.62-8.35.9-6.59-2.5-5.86-1.75.67,2.46-8.12-2.8,2.77-.56-5.82-3.91-1.35,3.13-.96-.34-11.36-13.08-9.08-1.05,7.39-3.96,5.11,1.37-11.6,2.77-4.72-2.92-2.21-2.98,3.46-7.71-11.08,5.89-16.92-2.35,1.23.31-8.88-3.2,2.9-4.96,9.79-15.06,20.01-12,8.42-7.8,16.8h0s-1.13,2.46-1.13,2.46l-12.34,20.23-18.01,14.47-8.15,10.99,12.86,11.19,20.6-9.42c4.99,3.79,9.96,7.57,14.95,11.36l51.57,37.78,25.59,13.64,14.57-.33,50.35,38.93,16.8,12.98,4.72-1.9,3.66,3.35,10.59,3.83,9.81,5.63,17.71-15.09,6.23-13.52,15.36,22.65,4.55-2.12,4.55,5.97,10.52-8.41,5.34-9.34,3.69.38,3.44-4,4.8,1.65,9.65,14.45,10.32,6.44,5.02,7.03,3.73-7.54,3.13,2.86,5.71.4,3.25,4.33,1.95.34.34-2.56,2.94,4.44,2.06-.77,56.13-20.99-69.71-51.24ZM516.78,209.27l2.76-7.68,2.9-4.03,3.84.79-9.5,10.92ZM368.1,175.6l-3.92-7.19-4.05-4.22-1.83,3.02.85,7.8-7.16-6.25-4.76,10.46-.44-4.06,3.88-8.6.05-5.1-6.12-8.8,1.04-7.76,5.93-11.37,8.27,8.28.33,4.95,4.21,5.08.98,8.79,4.35,7.26-1.61,7.71ZM406.14,217.74l-10.48-5.52-5.08-3.5-3.96.82-6.57-5.78-4.44-1.65-.41-2.71-2.01-2.75,5.75-11.21-.05-9.4,5.48-5.73-2.87,7.41,2.09,3.47,4.26,10.63,2.84,1.13,9.31,10.31.64,3.74,7.68,8,10.26,10.41-12.44-7.68ZM555.13,219.95l4.13-4.28-4.13,8.9v-4.62ZM557.5,276.51l-2.99-1.75-3.46-6.15-5.52-1.04,1.86,5.63-3.66-1.49-4.96,2.58,3.87-4.76-.77-4.24,10.37-3.98,15.59,24.33-10.33-9.14ZM591.57,300.91l-7.05-4.54,6.79,2.47-9.55-9.81,13.22,7.67,8.87,10.87-12.27-6.66Z"/>
      <path class="cls-4" d="M639.33,341.05l-46.58,17.41-29.29,4.84-43.57,10.17-53.97,16.37-52.62-11.52-18.16,8.64-11.6-11.36-71.87,28.74-92.49-44.97-45.39,11.88-17.67-8.16-15.28,4.67-13.72-7.93-20.52,5.92-13.64-7.18-15.24,3.25s-24.4-2.43-23.96-2.77c5.29-2.3,10.63-4.52,16.01-6.64l4.61-9.9,28.84-18.97,16.52-26.11,26.58-31.35,13.18.19,8.23-5.08,32.22-35.92h7.61s33.5-33.16,33.5-33.16l2.2,54.82,11.18,42.17,22.96,18.81-4.88-35.66-11.19-10.06-14.58-24.73,21.95,18.82-15.18-32.42,12.48,11.69-5.82-14.34-8.47-12.93,5.88,3.92,3.7-2.15,2.56,1.07,4.1-2.39,8.94-5.21,3.69,17.85,5.13,4.8,8.2-9.35,20.6-9.42c-.22.49-.29,20.76-.29,20.76l25.74,31.45,3.27,18.74.04.25-4.91,16.96,22.43,15.77-.81-17.63-5.69-5.21-9.53-17.77,13.79,12.25-13.41-35.1-1.39-10.07,26.5,26.65,12.71,13.18,24.48,17.74-7.2-18.83,12.7-.93,6.82,1.79,30.81,26.88-8.06-14.11,29.03,18.6,16.8,12.98,4.72-1.9,3.66,3.35,10.59,3.83,9.81,5.63,17.71-15.09,6.23-13.52,15.36,22.65,4.55-2.12,4.55,5.97,10.52-8.41,5.34-9.34,3.69.38,3.44-4,4.8,1.65,9.65,14.45,10.32,6.44,5.02,7.03,3.73-7.54,3.13,2.86,5.71.4,3.25,4.33,1.95.34.34-2.56,2.94,4.44Z"/>
      <path class="cls-3" d="M518.09,263.83l-2.88-6.83-.94-3.16,19.8,10.32-13.09-14.28-10.28-5.48-5.74-11.85-6.55-3.65-2.08-4.69-24.68-19.01-7.61-14.13-9.95-18.51-7.2-8.28-7.56-15.92-18-13.05-9.99-13.42-8.72-13.76-21.35-14.6-.38,6.03,7.52,4.51.66,9.02.87,3.72,2.57,4-3.99-.31-.97-3.64-11.93-12.92-4.92-1.35h-.04s-2.1-.6-2.1-.6l-4.88-2.39-.31,8.88,2.35-1.23-5.89,16.92,7.71,11.08,2.98-3.46,2.92,2.21-2.77,4.72-1.37,11.6,3.96-5.11,1.05-7.39,13.08,9.08.34,11.36-3.13.96,3.91,1.35.56,5.82,2.8-2.77-2.46,8.12,1.75-.67,2.5,5.86-.9,6.59,15.62,8.35-1.93-6.36,10.76,7.45-5.78-11.13,11.55,8.53,5.08-.44,8.95,9.54,8.23,14.09,8.61,6.59,7.71,1.9,23.82,26.09.25-4.15,5.13,3.96,7.74,12.26,16.39,15.65-10-18.85,6.62,1.61,6.62,5.22ZM425.66,182.49l-20.99-20.06-4.52-10.55-8.77-8.15-5.25-10.29,8.82,6.26-3.03-7.75,10.89,8.16,8.56,11.32,14.34,12.34-.03,18.73Z"/>
      <polygon class="cls-3" points="626.11 268.04 620.76 267.97 606.06 250.16 601.51 250.53 587.67 241.82 580.28 242.15 561.35 224.45 564.51 216.86 554.87 205.66 545.58 204.26 544.91 201.02 540.27 199.58 532.4 183.65 526.87 168.78 525.16 159.65 515.18 154.72 513.28 152.6 520.26 147.91 544.22 167.1 565.57 203.17 573.01 203.78 588.51 227.81 599.95 237.15 607.21 243.78 626.11 268.04"/>
      <polygon class="cls-1" points="392.5 120.79 388.51 120.48 387.54 116.84 375.6 103.93 370.68 102.57 381.26 93.51 380.88 99.54 388.4 104.05 389.05 113.07 389.93 116.79 392.5 120.79"/>
      <polygon class="cls-2" points="369.71 167.89 368.1 175.6 364.18 168.41 360.13 164.19 358.3 167.21 359.15 175.01 351.99 168.77 347.23 179.22 346.79 175.16 350.67 166.57 350.73 161.47 344.6 152.67 345.64 144.9 351.58 133.53 359.84 141.81 360.17 146.76 364.38 151.85 365.37 160.64 369.71 167.89"/>
      <polygon class="cls-2" points="418.58 225.42 406.14 217.74 395.65 212.22 390.57 208.72 386.61 209.54 380.03 203.76 375.59 202.1 375.18 199.4 373.17 196.65 378.92 185.44 378.87 176.04 384.35 170.31 381.48 177.72 383.57 181.19 387.84 191.83 390.68 192.96 399.99 203.27 400.63 207.01 408.31 215.01 418.58 225.42"/>
      <polygon class="cls-1" points="425.68 163.77 425.66 182.49 404.66 162.43 400.14 151.87 391.36 143.73 386.11 133.44 394.93 139.7 391.9 131.95 402.79 140.11 411.34 151.42 425.68 163.77"/>
      <path class="cls-3" d="M471.48,308.8l-50.35-38.93-14.57.33-25.59-13.64-51.57-37.78c-4.99-3.79-9.96-7.57-14.95-11.36-.22.49-.29,20.76-.29,20.76l25.74,31.45,3.27,18.74.04.25-4.91,16.96,22.43,15.77-.81-17.63-5.69-5.21-9.53-17.77,13.79,12.25-13.41-35.1-1.39-10.07,26.5,26.65,12.71,13.18,24.48,17.74-7.2-18.83,12.7-.93,6.82,1.79,30.81,26.88-8.06-14.11,29.03,18.6Z"/>
      <polygon class="cls-3" points="567.83 285.66 557.5 276.51 554.5 274.76 551.04 268.61 545.52 267.57 547.38 273.2 543.72 271.71 538.76 274.3 542.63 269.54 541.86 265.3 552.23 261.33 567.83 285.66"/>
      <polygon class="cls-3" points="603.84 307.57 591.57 300.91 584.52 296.37 591.31 298.85 581.76 289.03 594.97 296.7 603.84 307.57"/>
      <polygon class="cls-3" points="559.26 215.68 555.13 224.57 555.13 219.95 559.26 215.68"/>
      <polygon class="cls-3" points="526.28 198.35 516.78 209.27 519.54 201.58 522.44 197.55 526.28 198.35"/>
      <polygon class="cls-3" points="272.49 272.26 261.3 262.2 246.72 237.48 268.67 256.3 253.48 223.88 265.96 235.56 260.14 221.23 251.66 208.3 257.54 212.22 261.24 210.07 263.8 211.14 267.9 208.75 241.03 192.13 243.23 246.95 254.41 289.11 277.37 307.92 272.49 272.26"/>
      <polygon class="cls-3" points="320.63 157.51 319.5 159.95 307.15 180.18 289.14 194.65 280.99 205.64 293.86 216.84 285.65 226.19 280.53 221.39 276.84 203.54 289.84 184.58 320.63 157.51"/>
    </g>
  </g>
</svg>